<svg width="25" height="24" viewBox="0 0 25 24" fill="none" xmlns="http://www.w3.org/2000/svg">
<path d="M12.3 7C12.3 5.93913 11.8786 4.92172 11.1285 4.17157C10.3783 3.42143 9.36091 3 8.30005 3H2.30005V18H9.30005C10.0957 18 10.8588 18.3161 11.4214 18.8787C11.984 19.4413 12.3 20.2044 12.3 21M12.3 7V21M12.3 7C12.3 5.93913 12.7215 4.92172 13.4716 4.17157C14.2218 3.42143 15.2392 3 16.3 3H22.3V18H15.3C14.5044 18 13.7413 18.3161 13.1787 18.8787C12.6161 19.4413 12.3 20.2044 12.3 21" stroke="#9DA4AE" stroke-width="1.5" stroke-linecap="round" stroke-linejoin="round"/>
</svg>
