<svg width="25" height="24" viewBox="0 0 25 24" fill="none" xmlns="http://www.w3.org/2000/svg">
<rect width="24" height="24" transform="translate(0.300003)" fill="white"/>
<path d="M12.3 7C12.3 5.93913 11.8786 4.92172 11.1284 4.17157C10.3783 3.42143 9.36087 3 8.3 3H2.3V18H9.3C10.0957 18 10.8587 18.3161 11.4213 18.8787C11.9839 19.4413 12.3 20.2044 12.3 21M12.3 7V21M12.3 7C12.3 5.93913 12.7214 4.92172 13.4716 4.17157C14.2217 3.42143 15.2391 3 16.3 3H22.3V18H15.3C14.5044 18 13.7413 18.3161 13.1787 18.8787C12.6161 19.4413 12.3 20.2044 12.3 21" stroke="url(#paint0_linear_2_155)" stroke-linecap="round" stroke-linejoin="round"/>
<defs>
<linearGradient id="paint0_linear_2_155" x1="22.3" y1="12" x2="-4.45325" y2="9.71838" gradientUnits="userSpaceOnUse">
<stop stop-color="#1F73F7"/>
<stop offset="0.822452" stop-color="#F15F60"/>
</linearGradient>
</defs>
</svg>
