<svg width="25" height="24" viewBox="0 0 25 24" fill="none" xmlns="http://www.w3.org/2000/svg">
<path d="M7.95556 8.58824H16.8445M7.95556 13.0588H14.6222M19.0667 3C19.9507 3 20.7986 3.35326 21.4237 3.98205C22.0488 4.61085 22.4 5.46369 22.4 6.35294V15.2941C22.4 16.1834 22.0488 17.0362 21.4237 17.665C20.7986 18.2938 19.9507 18.6471 19.0667 18.6471H13.5111L7.95556 22V18.6471H5.73334C4.84929 18.6471 4.00144 18.2938 3.37632 17.665C2.7512 17.0362 2.40001 16.1834 2.40001 15.2941V6.35294C2.40001 5.46369 2.7512 4.61085 3.37632 3.98205C4.00144 3.35326 4.84929 3 5.73334 3H19.0667Z" stroke="url(#paint0_linear_2_164)" stroke-linecap="round" stroke-linejoin="round"/>
<defs>
<linearGradient id="paint0_linear_2_164" x1="22.4" y1="12.5" x2="-4.37305" y2="10.3369" gradientUnits="userSpaceOnUse">
<stop stop-color="#1F73F7"/>
<stop offset="0.822452" stop-color="#F15F60"/>
</linearGradient>
</defs>
</svg>
