<svg width="25" height="24" viewBox="0 0 25 24" fill="none" xmlns="http://www.w3.org/2000/svg">
<path d="M7.95558 8.58824H16.8445M7.95558 13.0588H14.6222M19.0667 3C19.9507 3 20.7986 3.35326 21.4237 3.98205C22.0488 4.61085 22.4 5.46369 22.4 6.35294V15.2941C22.4 16.1834 22.0488 17.0362 21.4237 17.665C20.7986 18.2938 19.9507 18.6471 19.0667 18.6471H13.5111L7.95558 22V18.6471H5.73336C4.8493 18.6471 4.00146 18.2938 3.37634 17.665C2.75121 17.0362 2.40002 16.1834 2.40002 15.2941V6.35294C2.40002 5.46369 2.75121 4.61085 3.37634 3.98205C4.00146 3.35326 4.8493 3 5.73336 3H19.0667Z" stroke="#9DA4AE" stroke-width="1.5" stroke-linecap="round" stroke-linejoin="round"/>
</svg>
