<svg width="25" height="24" viewBox="0 0 25 24" fill="none" xmlns="http://www.w3.org/2000/svg">
<mask id="mask0_2_159" style="mask-type:alpha" maskUnits="userSpaceOnUse" x="0" y="0" width="25" height="24">
<rect x="0.600006" width="24" height="24" fill="#D9D9D9"/>
</mask>
<g mask="url(#mask0_2_159)">
<path d="M22.9017 10.9444V19.7778C22.9017 20.3889 22.6775 20.912 22.2292 21.3472C21.7809 21.7824 21.2419 22 20.6124 22H4.58762C3.95807 22 3.41914 21.7824 2.97083 21.3472C2.52252 20.912 2.29836 20.3889 2.29836 19.7778V10.9444C1.85959 10.5556 1.52097 10.0556 1.2825 9.44445C1.04404 8.83333 1.03927 8.16667 1.2682 7.44444L2.47005 3.66667C2.62267 3.18519 2.89452 2.78704 3.2856 2.47222C3.67668 2.15741 4.12976 2 4.64485 2H20.5552C21.0702 2 21.5186 2.15278 21.9001 2.45833C22.2816 2.76389 22.5583 3.16667 22.73 3.66667L23.9318 7.44444C24.1607 8.16667 24.156 8.82407 23.9175 9.41667C23.679 10.0093 23.3404 10.5185 22.9017 10.9444ZM15.1182 9.77778C15.6333 9.77778 16.0243 9.60648 16.2914 9.26389C16.5585 8.9213 16.6634 8.53704 16.6062 8.11111L15.9767 4.22222H13.7446V8.33333C13.7446 8.72222 13.8782 9.06019 14.1453 9.34722C14.4123 9.63426 14.7366 9.77778 15.1182 9.77778ZM9.96736 9.77778C10.4061 9.77778 10.7638 9.63426 11.0405 9.34722C11.3171 9.06019 11.4554 8.72222 11.4554 8.33333V4.22222H9.22336L8.59381 8.11111C8.5175 8.55556 8.61766 8.94445 8.89428 9.27778C9.17089 9.61111 9.52859 9.77778 9.96736 9.77778ZM4.87377 9.77778C5.21716 9.77778 5.51762 9.65741 5.77517 9.41667C6.03271 9.17593 6.19009 8.87037 6.24732 8.5L6.87687 4.22222H4.64485L3.50022 7.94444C3.38576 8.31482 3.44776 8.71296 3.68622 9.13889C3.92469 9.56482 4.32054 9.77778 4.87377 9.77778ZM20.3262 9.77778C20.8795 9.77778 21.2801 9.56482 21.5281 9.13889C21.7761 8.71296 21.8333 8.31482 21.6998 7.94444L20.4979 4.22222H18.3231L18.9527 8.5C19.0099 8.87037 19.1673 9.17593 19.4248 9.41667C19.6824 9.65741 19.9829 9.77778 20.3262 9.77778Z" fill="url(#paint0_linear_2_159)"/>
</g>
<defs>
<linearGradient id="paint0_linear_2_159" x1="24.1" y1="12" x2="-6.65042" y2="9.2857" gradientUnits="userSpaceOnUse">
<stop stop-color="#1F73F7"/>
<stop offset="0.822452" stop-color="#F15F60"/>
</linearGradient>
</defs>
</svg>
