<svg width="25" height="24" viewBox="0 0 25 24" fill="none" xmlns="http://www.w3.org/2000/svg">
  <path
    d="M22.902 10.944v8.834c0 .61-.225 1.134-.673 1.57a2.238 2.238 0 01-1.617.652H4.588c-.63 0-1.169-.218-1.617-.653a2.109 2.109 0 01-.673-1.57v-8.833c-.438-.388-.777-.888-1.016-1.5-.238-.61-.243-1.277-.014-2L2.47 3.667c.153-.482.424-.88.816-1.195A2.105 2.105 0 014.645 2h15.91c.515 0 .963.153 1.345.458.382.306.658.709.83 1.209l1.202 3.777c.229.723.224 1.38-.014 1.973a4.378 4.378 0 01-1.016 1.527zm-7.784-1.166c.515 0 .906-.172 1.173-.514.267-.343.372-.727.315-1.153l-.63-3.889h-2.231v4.111c0 .39.133.727.4 1.014.267.287.592.43.973.43zm-5.15 0c.438 0 .796-.144 1.072-.43.277-.288.415-.626.415-1.015v-4.11H9.223l-.63 3.888c-.076.445.025.833.301 1.167.277.333.635.5 1.073.5zm-5.094 0c.343 0 .644-.12.901-.361.258-.241.415-.547.472-.917l.63-4.278H4.645L3.5 7.944c-.114.37-.052.769.186 1.195.239.426.635.639 1.188.639zm15.452 0c.553 0 .954-.213 1.202-.64.248-.425.305-.823.172-1.194l-1.202-3.722h-2.175l.63 4.278c.057.37.214.676.472.917.257.24.558.36.901.36z"
    fill="#9DA4AE"
  />
</svg>
