<svg width="14" height="14" viewBox="0 0 14 14" fill="none" xmlns="http://www.w3.org/2000/svg">
<path d="M2.45581 3.88199C2.45581 3.50376 2.60606 3.14102 2.87351 2.87357C3.14096 2.60612 3.5037 2.45587 3.88193 2.45587H4.53017C4.90673 2.45565 5.26792 2.30651 5.53494 2.04099L5.98871 1.58723C6.12124 1.45395 6.27881 1.34818 6.45235 1.27601C6.6259 1.20384 6.812 1.16669 6.99996 1.16669C7.18791 1.16669 7.37402 1.20384 7.54756 1.27601C7.72111 1.34818 7.87868 1.45395 8.01121 1.58723L8.46498 2.04099C8.73205 2.30677 9.09377 2.45587 9.46975 2.45587H10.118C10.4962 2.45587 10.859 2.60612 11.1264 2.87357C11.3939 3.14102 11.5441 3.50376 11.5441 3.88199V4.53023C11.5441 4.90621 11.6932 5.26793 11.959 5.535L12.4128 5.98877C12.546 6.1213 12.6518 6.27887 12.724 6.45241C12.7961 6.62596 12.8333 6.81206 12.8333 7.00002C12.8333 7.18798 12.7961 7.37408 12.724 7.54762C12.6518 7.72117 12.546 7.87874 12.4128 8.01127L11.959 8.46504C11.6935 8.73206 11.5443 9.09325 11.5441 9.46981V10.118C11.5441 10.4963 11.3939 10.859 11.1264 11.1265C10.859 11.3939 10.4962 11.5442 10.118 11.5442H9.46975C9.09319 11.5444 8.73199 11.6935 8.46498 11.959L8.01121 12.4128C7.87868 12.5461 7.72111 12.6519 7.54756 12.724C7.37402 12.7962 7.18791 12.8334 6.99996 12.8334C6.812 12.8334 6.6259 12.7962 6.45235 12.724C6.27881 12.6519 6.12124 12.5461 5.98871 12.4128L5.53494 11.959C5.26792 11.6935 4.90673 11.5444 4.53017 11.5442H3.88193C3.5037 11.5442 3.14096 11.3939 2.87351 11.1265C2.60606 10.859 2.45581 10.4963 2.45581 10.118V9.46981C2.45559 9.09325 2.30645 8.73206 2.04093 8.46504L1.58717 8.01127C1.45389 7.87874 1.34812 7.72117 1.27595 7.54762C1.20378 7.37408 1.16663 7.18798 1.16663 7.00002C1.16663 6.81206 1.20378 6.62596 1.27595 6.45241C1.34812 6.27887 1.45389 6.1213 1.58717 5.98877L2.04093 5.535C2.30645 5.26798 2.45559 4.90679 2.45581 4.53023V3.88199Z" fill="#0079C1"/>
<path d="M5.04878 6.99354L6.34526 8.29001L8.93821 5.69706" fill="#0079C1"/>
<path d="M5.25 6.99998L6.41667 8.16665L8.75 5.83331" stroke="white" stroke-width="1.5" stroke-linecap="round" stroke-linejoin="round"/>
</svg>
