<svg width="25" height="24" viewBox="0 0 25 24" fill="none" xmlns="http://www.w3.org/2000/svg">
<g clip-path="url(#clip0_2_168)">
<path d="M17.2 21V19C17.2 17.9391 16.7786 16.9217 16.0284 16.1716C15.2783 15.4214 14.2609 15 13.2 15H5.20001C4.13915 15 3.12173 15.4214 2.37159 16.1716C1.62144 16.9217 1.20001 17.9391 1.20001 19V21M23.2 21V19C23.1994 18.1137 22.9044 17.2528 22.3614 16.5523C21.8184 15.8519 21.0581 15.3516 20.2 15.13M16.2 3.13C17.0604 3.3503 17.823 3.8507 18.3677 4.55231C18.9123 5.25392 19.2079 6.11683 19.2079 7.005C19.2079 7.89317 18.9123 8.75608 18.3677 9.45769C17.823 10.1593 17.0604 10.6597 16.2 10.88M13.2 7C13.2 9.20914 11.4092 11 9.20001 11C6.99087 11 5.20001 9.20914 5.20001 7C5.20001 4.79086 6.99087 3 9.20001 3C11.4092 3 13.2 4.79086 13.2 7Z" stroke="url(#paint0_linear_2_168)" stroke-linecap="round" stroke-linejoin="round"/>
</g>
<defs>
<linearGradient id="paint0_linear_2_168" x1="23.2" y1="12" x2="-6.184" y2="9.24342" gradientUnits="userSpaceOnUse">
<stop stop-color="#1F73F7"/>
<stop offset="0.822452" stop-color="#F15F60"/>
</linearGradient>
<clipPath id="clip0_2_168">
<rect width="24" height="24" fill="white" transform="translate(0.200012)"/>
</clipPath>
</defs>
</svg>
