<svg width="25" height="24" viewBox="0 0 25 24" fill="none" xmlns="http://www.w3.org/2000/svg">
<g clip-path="url(#clip0_11_948)">
<path d="M17.2 21V19C17.2 17.9391 16.7785 16.9217 16.0284 16.1716C15.2782 15.4214 14.2608 15 13.2 15H5.19995C4.13909 15 3.12167 15.4214 2.37152 16.1716C1.62138 16.9217 1.19995 17.9391 1.19995 19V21M23.2 21V19C23.1993 18.1137 22.9043 17.2528 22.3613 16.5523C21.8183 15.8519 21.0581 15.3516 20.2 15.13M16.2 3.13C17.0604 3.3503 17.823 3.8507 18.3676 4.55231C18.9122 5.25392 19.2078 6.11683 19.2078 7.005C19.2078 7.89317 18.9122 8.75608 18.3676 9.45769C17.823 10.1593 17.0604 10.6597 16.2 10.88M13.2 7C13.2 9.20914 11.4091 11 9.19995 11C6.99081 11 5.19995 9.20914 5.19995 7C5.19995 4.79086 6.99081 3 9.19995 3C11.4091 3 13.2 4.79086 13.2 7Z" stroke="#9DA4AE" stroke-width="1.5" stroke-linecap="round" stroke-linejoin="round"/>
</g>
<defs>
<clipPath id="clip0_11_948">
<rect width="24" height="24" fill="white" transform="translate(0.199951)"/>
</clipPath>
</defs>
</svg>
